<svg id="visual" viewBox="0 0 900 300" width="900" height="300" xmlns="http://www.w3.org/2000/svg" xmlns:xlink="http://www.w3.org/1999/xlink" version="1.1"><path d="M0 79L13.7 76C27.3 73 54.7 67 82 58.5C109.3 50 136.7 39 163.8 36C191 33 218 38 245.2 44.5C272.3 51 299.7 59 327 62C354.3 65 381.7 63 409 64.5C436.3 66 463.7 71 491 66C518.3 61 545.7 46 573 43.5C600.3 41 627.7 51 654.8 57.5C682 64 709 67 736.2 69C763.3 71 790.7 72 818 68C845.3 64 872.7 55 886.3 50.5L900 46L900 0L886.3 0C872.7 0 845.3 0 818 0C790.7 0 763.3 0 736.2 0C709 0 682 0 654.8 0C627.7 0 600.3 0 573 0C545.7 0 518.3 0 491 0C463.7 0 436.3 0 409 0C381.7 0 354.3 0 327 0C299.7 0 272.3 0 245.2 0C218 0 191 0 163.8 0C136.7 0 109.3 0 82 0C54.7 0 27.3 0 13.7 0L0 0Z" fill="#a85ada"></path><path d="M0 175L13.7 171C27.3 167 54.7 159 82 150C109.3 141 136.7 131 163.8 132.5C191 134 218 147 245.2 146C272.3 145 299.7 130 327 122C354.3 114 381.7 113 409 117C436.3 121 463.7 130 491 131C518.3 132 545.7 125 573 126C600.3 127 627.7 136 654.8 141.5C682 147 709 149 736.2 150C763.3 151 790.7 151 818 147C845.3 143 872.7 135 886.3 131L900 127L900 44L886.3 48.5C872.7 53 845.3 62 818 66C790.7 70 763.3 69 736.2 67C709 65 682 62 654.8 55.5C627.7 49 600.3 39 573 41.5C545.7 44 518.3 59 491 64C463.7 69 436.3 64 409 62.5C381.7 61 354.3 63 327 60C299.7 57 272.3 49 245.2 42.5C218 36 191 31 163.8 34C136.7 37 109.3 48 82 56.5C54.7 65 27.3 71 13.7 74L0 77Z" fill="#7149a8"></path><path d="M0 220L13.7 216.5C27.3 213 54.7 206 82 206C109.3 206 136.7 213 163.8 220C191 227 218 234 245.2 231.5C272.3 229 299.7 217 327 215C354.3 213 381.7 221 409 226.5C436.3 232 463.7 235 491 234C518.3 233 545.7 228 573 223.5C600.3 219 627.7 215 654.8 212.5C682 210 709 209 736.2 212C763.3 215 790.7 222 818 226.5C845.3 231 872.7 233 886.3 234L900 235L900 125L886.3 129C872.7 133 845.3 141 818 145C790.7 149 763.3 149 736.2 148C709 147 682 145 654.8 139.5C627.7 134 600.3 125 573 124C545.7 123 518.3 130 491 129C463.7 128 436.3 119 409 115C381.7 111 354.3 112 327 120C299.7 128 272.3 143 245.2 144C218 145 191 132 163.8 130.5C136.7 129 109.3 139 82 148C54.7 157 27.3 165 13.7 169L0 173Z" fill="#433575"></path><path d="M0 268L13.7 264.5C27.3 261 54.7 254 82 250.5C109.3 247 136.7 247 163.8 250.5C191 254 218 261 245.2 261.5C272.3 262 299.7 256 327 254C354.3 252 381.7 254 409 258.5C436.3 263 463.7 270 491 270.5C518.3 271 545.7 265 573 262.5C600.3 260 627.7 261 654.8 258.5C682 256 709 250 736.2 248.5C763.3 247 790.7 250 818 252C845.3 254 872.7 255 886.3 255.5L900 256L900 233L886.3 232C872.7 231 845.3 229 818 224.5C790.7 220 763.3 213 736.2 210C709 207 682 208 654.8 210.5C627.7 213 600.3 217 573 221.5C545.7 226 518.3 231 491 232C463.7 233 436.3 230 409 224.5C381.7 219 354.3 211 327 213C299.7 215 272.3 227 245.2 229.5C218 232 191 225 163.8 218C136.7 211 109.3 204 82 204C54.7 204 27.3 211 13.7 214.5L0 218Z" fill="#201f42"></path><path d="M0 301L13.7 301C27.3 301 54.7 301 82 301C109.3 301 136.7 301 163.8 301C191 301 218 301 245.2 301C272.3 301 299.7 301 327 301C354.3 301 381.7 301 409 301C436.3 301 463.7 301 491 301C518.3 301 545.7 301 573 301C600.3 301 627.7 301 654.8 301C682 301 709 301 736.2 301C763.3 301 790.7 301 818 301C845.3 301 872.7 301 886.3 301L900 301L900 254L886.3 253.5C872.7 253 845.3 252 818 250C790.7 248 763.3 245 736.2 246.5C709 248 682 254 654.8 256.5C627.7 259 600.3 258 573 260.5C545.7 263 518.3 269 491 268.5C463.7 268 436.3 261 409 256.5C381.7 252 354.3 250 327 252C299.7 254 272.3 260 245.2 259.5C218 259 191 252 163.8 248.5C136.7 245 109.3 245 82 248.5C54.7 252 27.3 259 13.7 262.5L0 266Z" fill="#020113"></path></svg>