<svg id="visual" viewBox="0 0 900 300" width="900" height="300" xmlns="http://www.w3.org/2000/svg" xmlns:xlink="http://www.w3.org/1999/xlink" version="1.1"><path d="M0 34L13.7 32.5C27.3 31 54.7 28 82 27C109.3 26 136.7 27 163.8 30C191 33 218 38 245.2 40C272.3 42 299.7 41 327 37C354.3 33 381.7 26 409 23.5C436.3 21 463.7 23 491 24.5C518.3 26 545.7 27 573 26C600.3 25 627.7 22 654.8 20.5C682 19 709 19 736.2 21C763.3 23 790.7 27 818 29C845.3 31 872.7 31 886.3 31L900 31L900 0L886.3 0C872.7 0 845.3 0 818 0C790.7 0 763.3 0 736.2 0C709 0 682 0 654.8 0C627.7 0 600.3 0 573 0C545.7 0 518.3 0 491 0C463.7 0 436.3 0 409 0C381.7 0 354.3 0 327 0C299.7 0 272.3 0 245.2 0C218 0 191 0 163.8 0C136.7 0 109.3 0 82 0C54.7 0 27.3 0 13.7 0L0 0Z" fill="#020113"></path><path d="M0 67L13.7 68C27.3 69 54.7 71 82 68C109.3 65 136.7 57 163.8 61.5C191 66 218 83 245.2 89C272.3 95 299.7 90 327 81.5C354.3 73 381.7 61 409 57C436.3 53 463.7 57 491 59.5C518.3 62 545.7 63 573 59.5C600.3 56 627.7 48 654.8 46C682 44 709 48 736.2 55.5C763.3 63 790.7 74 818 78C845.3 82 872.7 79 886.3 77.5L900 76L900 29L886.3 29C872.7 29 845.3 29 818 27C790.7 25 763.3 21 736.2 19C709 17 682 17 654.8 18.5C627.7 20 600.3 23 573 24C545.7 25 518.3 24 491 22.5C463.7 21 436.3 19 409 21.5C381.7 24 354.3 31 327 35C299.7 39 272.3 40 245.2 38C218 36 191 31 163.8 28C136.7 25 109.3 24 82 25C54.7 26 27.3 29 13.7 30.5L0 32Z" fill="#371d40"></path><path d="M0 106L13.7 112.5C27.3 119 54.7 132 82 134.5C109.3 137 136.7 129 163.8 133C191 137 218 153 245.2 157.5C272.3 162 299.7 155 327 143.5C354.3 132 381.7 116 409 109C436.3 102 463.7 104 491 109C518.3 114 545.7 122 573 119.5C600.3 117 627.7 104 654.8 101.5C682 99 709 107 736.2 110.5C763.3 114 790.7 113 818 119C845.3 125 872.7 138 886.3 144.5L900 151L900 74L886.3 75.5C872.7 77 845.3 80 818 76C790.7 72 763.3 61 736.2 53.5C709 46 682 42 654.8 44C627.7 46 600.3 54 573 57.5C545.7 61 518.3 60 491 57.5C463.7 55 436.3 51 409 55C381.7 59 354.3 71 327 79.5C299.7 88 272.3 93 245.2 87C218 81 191 64 163.8 59.5C136.7 55 109.3 63 82 66C54.7 69 27.3 67 13.7 66L0 65Z" fill="#7e275a"></path><path d="M0 187L13.7 199.5C27.3 212 54.7 237 82 239C109.3 241 136.7 220 163.8 212C191 204 218 209 245.2 209C272.3 209 299.7 204 327 200C354.3 196 381.7 193 409 194.5C436.3 196 463.7 202 491 213C518.3 224 545.7 240 573 237C600.3 234 627.7 212 654.8 203C682 194 709 198 736.2 194C763.3 190 790.7 178 818 187.5C845.3 197 872.7 228 886.3 243.5L900 259L900 149L886.3 142.5C872.7 136 845.3 123 818 117C790.7 111 763.3 112 736.2 108.5C709 105 682 97 654.8 99.5C627.7 102 600.3 115 573 117.5C545.7 120 518.3 112 491 107C463.7 102 436.3 100 409 107C381.7 114 354.3 130 327 141.5C299.7 153 272.3 160 245.2 155.5C218 151 191 135 163.8 131C136.7 127 109.3 135 82 132.5C54.7 130 27.3 117 13.7 110.5L0 104Z" fill="#c83258"></path><path d="M0 301L13.7 301C27.3 301 54.7 301 82 301C109.3 301 136.7 301 163.8 301C191 301 218 301 245.2 301C272.3 301 299.7 301 327 301C354.3 301 381.7 301 409 301C436.3 301 463.7 301 491 301C518.3 301 545.7 301 573 301C600.3 301 627.7 301 654.8 301C682 301 709 301 736.2 301C763.3 301 790.7 301 818 301C845.3 301 872.7 301 886.3 301L900 301L900 257L886.3 241.5C872.7 226 845.3 195 818 185.5C790.7 176 763.3 188 736.2 192C709 196 682 192 654.8 201C627.7 210 600.3 232 573 235C545.7 238 518.3 222 491 211C463.7 200 436.3 194 409 192.5C381.7 191 354.3 194 327 198C299.7 202 272.3 207 245.2 207C218 207 191 202 163.8 210C136.7 218 109.3 239 82 237C54.7 235 27.3 210 13.7 197.5L0 185Z" fill="#ff5c39"></path></svg>