<svg id="visual" viewBox="0 0 900 300" width="900" height="300" xmlns="http://www.w3.org/2000/svg" xmlns:xlink="http://www.w3.org/1999/xlink" version="1.1"><path d="M0 43L113 61L225 25L338 64L450 55L563 40L675 61L788 49L900 52L900 0L788 0L675 0L563 0L450 0L338 0L225 0L113 0L0 0Z" fill="#ffe84d"></path><path d="M0 91L113 157L225 115L338 139L450 133L563 121L675 157L788 121L900 130L900 50L788 47L675 59L563 38L450 53L338 62L225 23L113 59L0 41Z" fill="#feaa4b"></path><path d="M0 190L113 205L225 181L338 205L450 172L563 184L675 193L788 190L900 181L900 128L788 119L675 155L563 119L450 131L338 137L225 113L113 155L0 89Z" fill="#e17558"></path><path d="M0 226L113 220L225 211L338 217L450 208L563 208L675 205L788 223L900 196L900 179L788 188L675 191L563 182L450 170L338 203L225 179L113 203L0 188Z" fill="#ae4f5e"></path><path d="M0 256L113 244L225 247L338 238L450 235L563 247L675 253L788 253L900 247L900 194L788 221L675 203L563 206L450 206L338 215L225 209L113 218L0 224Z" fill="#703654"></path><path d="M0 268L113 283L225 280L338 280L450 274L563 289L675 289L788 280L900 268L900 245L788 251L675 251L563 245L450 233L338 236L225 245L113 242L0 254Z" fill="#342039"></path><path d="M0 301L113 301L225 301L338 301L450 301L563 301L675 301L788 301L900 301L900 266L788 278L675 287L563 287L450 272L338 278L225 278L113 281L0 266Z" fill="#020113"></path></svg>