<svg id="visual" viewBox="0 0 900 300" width="900" height="300" xmlns="http://www.w3.org/2000/svg" xmlns:xlink="http://www.w3.org/1999/xlink" version="1.1"><rect x="0" y="0" width="900" height="300" fill="#020113"></rect><path d="M0 228L9.3 228.5C18.7 229 37.3 230 56.2 218C75 206 94 181 112.8 183.3C131.7 185.7 150.3 215.3 169 224.5C187.7 233.7 206.3 222.3 225 211.3C243.7 200.3 262.3 189.7 281.2 182.8C300 176 319 173 337.8 172C356.7 171 375.3 172 394 175.5C412.7 179 431.3 185 450 197C468.7 209 487.3 227 506.2 225.2C525 223.3 544 201.7 562.8 185.8C581.7 170 600.3 160 619 169.7C637.7 179.3 656.3 208.7 675 218.2C693.7 227.7 712.3 217.3 731.2 202.2C750 187 769 167 787.8 161.8C806.7 156.7 825.3 166.3 844 175.3C862.7 184.3 881.3 192.7 890.7 196.8L900 201L900 301L890.7 301C881.3 301 862.7 301 844 301C825.3 301 806.7 301 787.8 301C769 301 750 301 731.2 301C712.3 301 693.7 301 675 301C656.3 301 637.7 301 619 301C600.3 301 581.7 301 562.8 301C544 301 525 301 506.2 301C487.3 301 468.7 301 450 301C431.3 301 412.7 301 394 301C375.3 301 356.7 301 337.8 301C319 301 300 301 281.2 301C262.3 301 243.7 301 225 301C206.3 301 187.7 301 169 301C150.3 301 131.7 301 112.8 301C94 301 75 301 56.2 301C37.3 301 18.7 301 9.3 301L0 301Z" fill="#4FACF7" stroke-linecap="round" stroke-linejoin="miter"></path></svg>