<svg id="visual" viewBox="0 0 900 300" width="900" height="300" xmlns="http://www.w3.org/2000/svg" xmlns:xlink="http://www.w3.org/1999/xlink" version="1.1"><path d="M0 73L13.7 83.5C27.3 94 54.7 115 82 116C109.3 117 136.7 98 163.8 83.5C191 69 218 59 245.2 55C272.3 51 299.7 53 327 62.5C354.3 72 381.7 89 409 90C436.3 91 463.7 76 491 65.5C518.3 55 545.7 49 573 55.5C600.3 62 627.7 81 654.8 86C682 91 709 82 736.2 75C763.3 68 790.7 63 818 72C845.3 81 872.7 104 886.3 115.5L900 127L900 0L886.3 0C872.7 0 845.3 0 818 0C790.7 0 763.3 0 736.2 0C709 0 682 0 654.8 0C627.7 0 600.3 0 573 0C545.7 0 518.3 0 491 0C463.7 0 436.3 0 409 0C381.7 0 354.3 0 327 0C299.7 0 272.3 0 245.2 0C218 0 191 0 163.8 0C136.7 0 109.3 0 82 0C54.7 0 27.3 0 13.7 0L0 0Z" fill="#4facf7"></path><path d="M0 151L13.7 154.5C27.3 158 54.7 165 82 163C109.3 161 136.7 150 163.8 138C191 126 218 113 245.2 106.5C272.3 100 299.7 100 327 113.5C354.3 127 381.7 154 409 156C436.3 158 463.7 135 491 125.5C518.3 116 545.7 120 573 124C600.3 128 627.7 132 654.8 137C682 142 709 148 736.2 140C763.3 132 790.7 110 818 111C845.3 112 872.7 136 886.3 148L900 160L900 125L886.3 113.5C872.7 102 845.3 79 818 70C790.7 61 763.3 66 736.2 73C709 80 682 89 654.8 84C627.7 79 600.3 60 573 53.5C545.7 47 518.3 53 491 63.5C463.7 74 436.3 89 409 88C381.7 87 354.3 70 327 60.5C299.7 51 272.3 49 245.2 53C218 57 191 67 163.8 81.5C136.7 96 109.3 115 82 114C54.7 113 27.3 92 13.7 81.5L0 71Z" fill="#497cb7"></path><path d="M0 175L13.7 179C27.3 183 54.7 191 82 193.5C109.3 196 136.7 193 163.8 183C191 173 218 156 245.2 148.5C272.3 141 299.7 143 327 157C354.3 171 381.7 197 409 197.5C436.3 198 463.7 173 491 161.5C518.3 150 545.7 152 573 157C600.3 162 627.7 170 654.8 175C682 180 709 182 736.2 172C763.3 162 790.7 140 818 142C845.3 144 872.7 170 886.3 183L900 196L900 158L886.3 146C872.7 134 845.3 110 818 109C790.7 108 763.3 130 736.2 138C709 146 682 140 654.8 135C627.7 130 600.3 126 573 122C545.7 118 518.3 114 491 123.5C463.7 133 436.3 156 409 154C381.7 152 354.3 125 327 111.5C299.7 98 272.3 98 245.2 104.5C218 111 191 124 163.8 136C136.7 148 109.3 159 82 161C54.7 163 27.3 156 13.7 152.5L0 149Z" fill="#39517b"></path><path d="M0 280L13.7 275C27.3 270 54.7 260 82 256.5C109.3 253 136.7 256 163.8 255C191 254 218 249 245.2 249C272.3 249 299.7 254 327 259.5C354.3 265 381.7 271 409 270.5C436.3 270 463.7 263 491 262.5C518.3 262 545.7 268 573 269C600.3 270 627.7 266 654.8 266C682 266 709 270 736.2 271.5C763.3 273 790.7 272 818 267.5C845.3 263 872.7 255 886.3 251L900 247L900 194L886.3 181C872.7 168 845.3 142 818 140C790.7 138 763.3 160 736.2 170C709 180 682 178 654.8 173C627.7 168 600.3 160 573 155C545.7 150 518.3 148 491 159.5C463.7 171 436.3 196 409 195.5C381.7 195 354.3 169 327 155C299.7 141 272.3 139 245.2 146.5C218 154 191 171 163.8 181C136.7 191 109.3 194 82 191.5C54.7 189 27.3 181 13.7 177L0 173Z" fill="#222a43"></path><path d="M0 301L13.7 301C27.3 301 54.7 301 82 301C109.3 301 136.7 301 163.8 301C191 301 218 301 245.2 301C272.3 301 299.7 301 327 301C354.3 301 381.7 301 409 301C436.3 301 463.7 301 491 301C518.3 301 545.7 301 573 301C600.3 301 627.7 301 654.8 301C682 301 709 301 736.2 301C763.3 301 790.7 301 818 301C845.3 301 872.7 301 886.3 301L900 301L900 245L886.3 249C872.7 253 845.3 261 818 265.5C790.7 270 763.3 271 736.2 269.5C709 268 682 264 654.8 264C627.7 264 600.3 268 573 267C545.7 266 518.3 260 491 260.5C463.7 261 436.3 268 409 268.5C381.7 269 354.3 263 327 257.5C299.7 252 272.3 247 245.2 247C218 247 191 252 163.8 253C136.7 254 109.3 251 82 254.5C54.7 258 27.3 268 13.7 273L0 278Z" fill="#020113"></path></svg>