<svg id="visual" viewBox="0 0 900 300" width="900" height="300" xmlns="http://www.w3.org/2000/svg" xmlns:xlink="http://www.w3.org/1999/xlink" version="1.1"><path d="M0 85L13.7 84.5C27.3 84 54.7 83 82 81.5C109.3 80 136.7 78 163.8 72C191 66 218 56 245.2 53.5C272.3 51 299.7 56 327 66C354.3 76 381.7 91 409 99C436.3 107 463.7 108 491 108.5C518.3 109 545.7 109 573 108.5C600.3 108 627.7 107 654.8 110C682 113 709 120 736.2 115C763.3 110 790.7 93 818 85.5C845.3 78 872.7 80 886.3 81L900 82L900 0L886.3 0C872.7 0 845.3 0 818 0C790.7 0 763.3 0 736.2 0C709 0 682 0 654.8 0C627.7 0 600.3 0 573 0C545.7 0 518.3 0 491 0C463.7 0 436.3 0 409 0C381.7 0 354.3 0 327 0C299.7 0 272.3 0 245.2 0C218 0 191 0 163.8 0C136.7 0 109.3 0 82 0C54.7 0 27.3 0 13.7 0L0 0Z" fill="#76c9ff"></path><path d="M0 220L13.7 212C27.3 204 54.7 188 82 174.5C109.3 161 136.7 150 163.8 145.5C191 141 218 143 245.2 151C272.3 159 299.7 173 327 177C354.3 181 381.7 175 409 168C436.3 161 463.7 153 491 157.5C518.3 162 545.7 179 573 184.5C600.3 190 627.7 184 654.8 185.5C682 187 709 196 736.2 191C763.3 186 790.7 167 818 158C845.3 149 872.7 150 886.3 150.5L900 151L900 80L886.3 79C872.7 78 845.3 76 818 83.5C790.7 91 763.3 108 736.2 113C709 118 682 111 654.8 108C627.7 105 600.3 106 573 106.5C545.7 107 518.3 107 491 106.5C463.7 106 436.3 105 409 97C381.7 89 354.3 74 327 64C299.7 54 272.3 49 245.2 51.5C218 54 191 64 163.8 70C136.7 76 109.3 78 82 79.5C54.7 81 27.3 82 13.7 82.5L0 83Z" fill="#6091be"></path><path d="M0 244L13.7 237C27.3 230 54.7 216 82 207C109.3 198 136.7 194 163.8 191.5C191 189 218 188 245.2 197C272.3 206 299.7 225 327 226.5C354.3 228 381.7 212 409 206C436.3 200 463.7 204 491 210.5C518.3 217 545.7 226 573 228C600.3 230 627.7 225 654.8 227C682 229 709 238 736.2 230C763.3 222 790.7 197 818 191C845.3 185 872.7 198 886.3 204.5L900 211L900 149L886.3 148.5C872.7 148 845.3 147 818 156C790.7 165 763.3 184 736.2 189C709 194 682 185 654.8 183.5C627.7 182 600.3 188 573 182.5C545.7 177 518.3 160 491 155.5C463.7 151 436.3 159 409 166C381.7 173 354.3 179 327 175C299.7 171 272.3 157 245.2 149C218 141 191 139 163.8 143.5C136.7 148 109.3 159 82 172.5C54.7 186 27.3 202 13.7 210L0 218Z" fill="#465e80"></path><path d="M0 280L13.7 275.5C27.3 271 54.7 262 82 257.5C109.3 253 136.7 253 163.8 255C191 257 218 261 245.2 264C272.3 267 299.7 269 327 266.5C354.3 264 381.7 257 409 257C436.3 257 463.7 264 491 269.5C518.3 275 545.7 279 573 276C600.3 273 627.7 263 654.8 261.5C682 260 709 267 736.2 267C763.3 267 790.7 260 818 260.5C845.3 261 872.7 269 886.3 273L900 277L900 209L886.3 202.5C872.7 196 845.3 183 818 189C790.7 195 763.3 220 736.2 228C709 236 682 227 654.8 225C627.7 223 600.3 228 573 226C545.7 224 518.3 215 491 208.5C463.7 202 436.3 198 409 204C381.7 210 354.3 226 327 224.5C299.7 223 272.3 204 245.2 195C218 186 191 187 163.8 189.5C136.7 192 109.3 196 82 205C54.7 214 27.3 228 13.7 235L0 242Z" fill="#283046"></path><path d="M0 301L13.7 301C27.3 301 54.7 301 82 301C109.3 301 136.7 301 163.8 301C191 301 218 301 245.2 301C272.3 301 299.7 301 327 301C354.3 301 381.7 301 409 301C436.3 301 463.7 301 491 301C518.3 301 545.7 301 573 301C600.3 301 627.7 301 654.8 301C682 301 709 301 736.2 301C763.3 301 790.7 301 818 301C845.3 301 872.7 301 886.3 301L900 301L900 275L886.3 271C872.7 267 845.3 259 818 258.5C790.7 258 763.3 265 736.2 265C709 265 682 258 654.8 259.5C627.7 261 600.3 271 573 274C545.7 277 518.3 273 491 267.5C463.7 262 436.3 255 409 255C381.7 255 354.3 262 327 264.5C299.7 267 272.3 265 245.2 262C218 259 191 255 163.8 253C136.7 251 109.3 251 82 255.5C54.7 260 27.3 269 13.7 273.5L0 278Z" fill="#020113"></path></svg>